<svg width="68" height="42" viewBox="0 0 68 42" fill="none" xmlns="http://www.w3.org/2000/svg">
<path d="M17.9204 16V11.6867L17.5204 11.44V10.7267L18.9537 10.3333H20.0671V16H17.9204ZM18.8871 9.72L17.7937 8.62V8.38667L18.8871 7.29333H19.1404L20.2804 8.38667V8.62L19.1404 9.72H18.8871ZM22.7401 16.14C22.3224 16.14 21.9001 16.0711 21.4735 15.9333C21.0468 15.7911 20.7735 15.6533 20.6535 15.52L20.8268 14.4467C20.9779 14.5933 21.229 14.72 21.5801 14.8267C21.9357 14.9333 22.2979 14.9867 22.6668 14.9867C22.9335 14.9867 23.1157 14.9533 23.2135 14.8867C23.3157 14.82 23.3668 14.7267 23.3668 14.6067C23.3668 14.4911 23.2779 14.3889 23.1001 14.3C22.9224 14.2067 22.6335 14.1 22.2335 13.98C21.1979 13.6689 20.6801 13.0244 20.6801 12.0467C20.6801 11.6467 20.7957 11.3044 21.0268 11.02C21.2579 10.7311 21.5535 10.5222 21.9135 10.3933C22.2735 10.2644 22.6757 10.2 23.1201 10.2C23.8801 10.2 24.4401 10.34 24.8001 10.62C24.8801 10.6956 24.9201 10.7333 24.9201 10.7333L24.6268 11.6867C24.3335 11.3978 23.929 11.2533 23.4135 11.2533C22.9912 11.2533 22.7801 11.3778 22.7801 11.6267C22.7801 11.6978 22.7957 11.7578 22.8268 11.8067C22.8579 11.8511 22.909 11.8911 22.9801 11.9267C23.0557 11.9578 23.129 11.9844 23.2001 12.0067C23.2712 12.0244 23.3712 12.0511 23.5001 12.0867C23.629 12.1178 23.7401 12.1467 23.8335 12.1733C24.3535 12.3467 24.7312 12.5911 24.9668 12.9067C25.2024 13.2222 25.3201 13.6156 25.3201 14.0867C25.3201 15.4556 24.4601 16.14 22.7401 16.14ZM27.9558 16H25.7958V8.46L25.3958 8.22V7.6L27.5358 7.26667H27.9691V11.1933L28.0491 11.0933C28.1025 11.0222 28.1803 10.9378 28.2825 10.84C28.3891 10.7422 28.5069 10.6467 28.6358 10.5533C28.7647 10.4556 28.918 10.3733 29.0958 10.3067C29.278 10.2356 29.4558 10.2 29.6291 10.2C30.238 10.2 30.6669 10.3667 30.9158 10.7C31.1691 11.0333 31.2958 11.5911 31.2958 12.3733C31.2958 12.4 31.2958 12.44 31.2958 12.4933C31.2914 12.5467 31.2891 12.5889 31.2891 12.62V16H29.0891V12.4267C29.1025 12.0089 28.9247 11.8 28.5558 11.8C28.5203 11.8 28.4847 11.8022 28.4491 11.8067C28.418 11.8111 28.3847 11.8222 28.3491 11.84C28.3136 11.8578 28.2847 11.8711 28.2625 11.88C28.2447 11.8889 28.2158 11.9067 28.1758 11.9333C28.1403 11.96 28.1158 11.9778 28.1025 11.9867C28.0936 11.9956 28.0669 12.0178 28.0225 12.0533C27.9825 12.0889 27.9603 12.1089 27.9558 12.1133V16Z" fill="black"/>
<path d="M17.8462 25V20.6867L17.4462 20.44V19.7267L18.8795 19.3333H19.9928V25H17.8462ZM18.8128 18.72L17.7195 17.62V17.3867L18.8128 16.2933H19.0662L20.2062 17.3867V17.62L19.0662 18.72H18.8128ZM22.6659 25.14C22.2481 25.14 21.8259 25.0711 21.3992 24.9333C20.9726 24.7911 20.6992 24.6533 20.5792 24.52L20.7526 23.4467C20.9037 23.5933 21.1548 23.72 21.5059 23.8267C21.8615 23.9333 22.2237 23.9867 22.5926 23.9867C22.8592 23.9867 23.0415 23.9533 23.1392 23.8867C23.2415 23.82 23.2926 23.7267 23.2926 23.6067C23.2926 23.4911 23.2037 23.3889 23.0259 23.3C22.8481 23.2067 22.5592 23.1 22.1592 22.98C21.1237 22.6689 20.6059 22.0244 20.6059 21.0467C20.6059 20.6467 20.7215 20.3044 20.9526 20.02C21.1837 19.7311 21.4792 19.5222 21.8392 19.3933C22.1992 19.2644 22.6015 19.2 23.0459 19.2C23.8059 19.2 24.3659 19.34 24.7259 19.62C24.8059 19.6956 24.8459 19.7333 24.8459 19.7333L24.5526 20.6867C24.2592 20.3978 23.8548 20.2533 23.3392 20.2533C22.917 20.2533 22.7059 20.3778 22.7059 20.6267C22.7059 20.6978 22.7215 20.7578 22.7526 20.8067C22.7837 20.8511 22.8348 20.8911 22.9059 20.9267C22.9815 20.9578 23.0548 20.9844 23.1259 21.0067C23.197 21.0244 23.297 21.0511 23.4259 21.0867C23.5548 21.1178 23.6659 21.1467 23.7592 21.1733C24.2792 21.3467 24.657 21.5911 24.8926 21.9067C25.1281 22.2222 25.2459 22.6156 25.2459 23.0867C25.2459 24.4556 24.3859 25.14 22.6659 25.14ZM30.2749 24.4467L30.2149 24.52C30.1749 24.5644 30.1038 24.6222 30.0016 24.6933C29.9038 24.76 29.7838 24.8289 29.6416 24.9C29.5038 24.9667 29.3171 25.0222 29.0816 25.0667C28.8505 25.1156 28.6016 25.14 28.3349 25.14C27.4327 25.14 26.7416 24.8756 26.2616 24.3467C25.786 23.8178 25.5483 23.1178 25.5483 22.2467C25.5483 21.7756 25.6216 21.3467 25.7683 20.96C25.9149 20.5733 26.1149 20.2533 26.3683 20C26.626 19.7422 26.926 19.5444 27.2683 19.4067C27.6149 19.2644 27.9883 19.1933 28.3883 19.1933C29.1616 19.1933 29.7616 19.3778 30.1883 19.7467C30.2816 19.84 30.3283 19.8867 30.3283 19.8867L30.2283 21.4533L29.2816 21.46L28.9016 20.44C28.866 20.4311 28.8171 20.4267 28.7549 20.4267C28.3505 20.4267 28.0705 20.5667 27.9149 20.8467C27.7638 21.1222 27.6883 21.6022 27.6883 22.2867C27.6883 22.5844 27.7127 22.84 27.7616 23.0533C27.8105 23.2622 27.866 23.42 27.9283 23.5267C27.9905 23.6289 28.0727 23.7089 28.1749 23.7667C28.2816 23.8244 28.3683 23.8578 28.4349 23.8667C28.5016 23.8756 28.5838 23.88 28.6816 23.88C28.9038 23.88 29.1305 23.8533 29.3616 23.8C29.5971 23.7467 29.7905 23.66 29.9416 23.54L30.2749 24.4467ZM33.6707 24.34C33.8663 24.34 34.0151 24.26 34.1174 24.1C34.224 23.9356 34.2774 23.7111 34.2774 23.4267V21.32C34.2774 20.4533 34.0729 20.02 33.664 20.02C33.4729 20.02 33.324 20.0978 33.2174 20.2533C33.1107 20.4089 33.0574 20.6289 33.0574 20.9133V23.08C33.0574 23.92 33.2618 24.34 33.6707 24.34ZM33.6174 25.14C32.5996 25.14 31.8551 24.9089 31.384 24.4467C30.9129 23.9844 30.6774 23.2467 30.6774 22.2333C30.6774 21.2289 30.9151 20.4733 31.3907 19.9667C31.8663 19.4556 32.6396 19.2 33.7107 19.2C34.7551 19.2 35.5085 19.4444 35.9707 19.9333C36.4374 20.4178 36.6707 21.1533 36.6707 22.14C36.6707 23.1622 36.424 23.9178 35.9307 24.4067C35.4418 24.8956 34.6707 25.14 33.6174 25.14ZM38.6903 25L36.7303 19.3333H39.1236L39.5503 21.38L39.857 23.1467L40.197 21.38L40.6903 19.3333H42.4903L40.7903 25H38.6903ZM45.859 21.5533C45.859 20.9889 45.8301 20.5889 45.7724 20.3533C45.7146 20.1178 45.6079 20 45.4524 20C45.319 20 45.2101 20.0244 45.1257 20.0733C45.0413 20.1178 44.979 20.1911 44.939 20.2933C44.899 20.3911 44.8724 20.4933 44.859 20.6C44.8501 20.7022 44.8457 20.8333 44.8457 20.9933V21.5533H45.859ZM45.3257 25.14C44.8279 25.14 44.3946 25.0644 44.0257 24.9133C43.6613 24.7622 43.3724 24.5511 43.159 24.28C42.9501 24.0089 42.7968 23.7044 42.699 23.3667C42.6013 23.0244 42.5524 22.6444 42.5524 22.2267C42.5524 21.2311 42.8057 20.4778 43.3124 19.9667C43.819 19.4556 44.5279 19.2 45.439 19.2C46.3146 19.2 46.9413 19.4067 47.319 19.82C47.6968 20.2289 47.8857 20.8889 47.8857 21.8V22.54H44.839V22.6667C44.839 22.9289 44.8657 23.1444 44.919 23.3133C44.9768 23.4822 45.059 23.6067 45.1657 23.6867C45.2724 23.7667 45.3813 23.82 45.4924 23.8467C45.6035 23.8733 45.739 23.8867 45.899 23.8867C46.0546 23.8867 46.2213 23.8667 46.399 23.8267C46.5813 23.7867 46.7635 23.7244 46.9457 23.64C47.1324 23.5556 47.2879 23.4556 47.4124 23.34L47.8057 24.0133C47.6413 24.28 47.399 24.5044 47.079 24.6867C46.7635 24.8644 46.459 24.9844 46.1657 25.0467C45.8724 25.1089 45.5924 25.14 45.3257 25.14ZM50.7612 25H48.6079V20.6867L48.2079 20.44V19.6867L49.6412 19.3333H50.1812L50.3746 20.92C50.5568 19.8311 51.1412 19.2867 52.1279 19.2867C52.239 19.2867 52.3546 19.3067 52.4746 19.3467L52.2479 21.72C52.1546 21.6356 51.9501 21.5933 51.6346 21.5933C51.1812 21.5933 50.8901 21.7133 50.7612 21.9533V25ZM55.7358 27.2933C55.278 27.2933 54.8469 27.2267 54.4424 27.0933C54.038 26.96 53.7424 26.78 53.5558 26.5533L53.9024 25.8333C54.1602 25.98 54.5691 26.0533 55.1291 26.0533C55.3069 26.0533 55.4602 26.0333 55.5891 25.9933C55.718 25.9533 55.8335 25.8822 55.9358 25.78C56.038 25.6822 56.1158 25.5422 56.1691 25.36C56.2224 25.1778 56.2513 24.9533 56.2558 24.6867V24.1133L56.1891 24.22C56.1446 24.2911 56.0758 24.3778 55.9824 24.48C55.8935 24.5778 55.7913 24.6778 55.6758 24.78C55.5602 24.8778 55.418 24.9622 55.2491 25.0333C55.0846 25.1044 54.9158 25.14 54.7424 25.14C54.0802 25.14 53.6135 24.9556 53.3424 24.5867C53.0713 24.2133 52.9358 23.5867 52.9358 22.7067V20.34L52.6958 20.1V19.3333H55.1224V23.1267C55.1224 23.3311 55.1535 23.4822 55.2158 23.58C55.2824 23.6733 55.4135 23.72 55.6091 23.72C55.6669 23.72 55.7246 23.7111 55.7824 23.6933C55.8402 23.6711 55.8958 23.6422 55.9491 23.6067C56.0069 23.5711 56.0669 23.5267 56.1291 23.4733V20.34L55.7624 20.1V19.3333H58.3024V24.22C58.3024 25.2022 58.0935 25.96 57.6758 26.4933C57.258 27.0267 56.6113 27.2933 55.7358 27.2933Z" fill="black"/>
<path d="M9.49984 22.8133C10.1754 22.8133 10.691 22.3956 11.0465 21.56C11.411 20.7244 11.5932 19.3467 11.5932 17.4267V16.08C11.5932 14.6756 11.4243 13.5911 11.0865 12.8267C10.7487 12.0622 10.2687 11.68 9.64651 11.68H8.64651V22.8133H9.49984ZM9.91318 25.0933C9.59318 25.0933 9.0954 25.0756 8.41984 25.04C7.75318 25.0133 7.06429 25 6.35318 25H4.23318V9.37333H6.35318C6.94873 9.36444 7.59762 9.34222 8.29984 9.30667C9.00207 9.27111 9.55318 9.25333 9.95318 9.25333C12.2198 9.25333 13.8421 9.88889 14.8198 11.16C15.8065 12.4311 16.2998 14.2844 16.2998 16.72C16.2998 17.5467 16.2421 18.3333 16.1265 19.08C16.0198 19.8267 15.8154 20.5778 15.5132 21.3333C15.211 22.08 14.8287 22.7244 14.3665 23.2667C13.9043 23.8089 13.291 24.2489 12.5265 24.5867C11.7621 24.9244 10.891 25.0933 9.91318 25.0933Z" fill="black"/>
<path d="M13.2043 29.68V30.872C13.2043 31.5493 13.0337 32.088 12.6923 32.488C12.3563 32.8827 11.871 33.08 11.2363 33.08C10.6017 33.08 10.1137 32.8827 9.77234 32.488C9.43634 32.088 9.26834 31.5493 9.26834 30.872V29.68C9.26834 29.008 9.43634 28.4747 9.77234 28.08C10.1137 27.68 10.6017 27.48 11.2363 27.48C11.871 27.48 12.3563 27.68 12.6923 28.08C13.0337 28.4747 13.2043 29.008 13.2043 29.68ZM12.4843 29.68C12.4843 29.184 12.3777 28.8027 12.1643 28.536C11.9563 28.264 11.647 28.128 11.2363 28.128C10.831 28.128 10.5217 28.264 10.3083 28.536C10.095 28.8027 9.98834 29.184 9.98834 29.68V30.872C9.98834 31.3733 10.095 31.76 10.3083 32.032C10.5217 32.304 10.831 32.44 11.2363 32.44C11.647 32.44 11.9563 32.304 12.1643 32.032C12.3777 31.76 12.4843 31.3733 12.4843 30.872V29.68ZM16.44 29.576C16.2907 29.576 16.1147 29.6133 15.912 29.688C15.7147 29.7627 15.4747 29.9147 15.192 30.144V33H14.536V29.04H15.16V29.592C15.4427 29.352 15.6987 29.1867 15.928 29.096C16.1627 29.0053 16.3867 28.96 16.6 28.96C16.968 28.96 17.248 29.0773 17.44 29.312C17.6374 29.5413 17.736 29.8693 17.736 30.296V33H17.08V30.392C17.08 29.848 16.8667 29.576 16.44 29.576ZM19.0983 32.04V27.08H19.7543V32.008C19.7543 32.152 19.7757 32.2613 19.8183 32.336C19.8663 32.4053 19.9597 32.44 20.0983 32.44H20.2263V33.04H20.0423C19.6903 33.04 19.445 32.9467 19.3063 32.76C19.1677 32.5733 19.0983 32.3333 19.0983 32.04ZM21.9117 28.072H21.1757V27.336H21.9117V28.072ZM21.8717 33H21.2157V29.04H21.8717V33ZM25.19 29.576C25.0407 29.576 24.8647 29.6133 24.662 29.688C24.4647 29.7627 24.2247 29.9147 23.942 30.144V33H23.286V29.04H23.91V29.592C24.1927 29.352 24.4487 29.1867 24.678 29.096C24.9127 29.0053 25.1367 28.96 25.35 28.96C25.718 28.96 25.998 29.0773 26.19 29.312C26.3874 29.5413 26.486 29.8693 26.486 30.296V33H25.83V30.392C25.83 29.848 25.6167 29.576 25.19 29.576ZM30.7283 32.768C30.4883 32.8853 30.2483 32.9653 30.0083 33.008C29.7683 33.056 29.547 33.08 29.3443 33.08C28.7737 33.08 28.347 32.9173 28.0643 32.592C27.787 32.2667 27.6483 31.8213 27.6483 31.256V30.776C27.6483 30.2267 27.787 29.7867 28.0643 29.456C28.347 29.1253 28.7443 28.96 29.2563 28.96C29.5283 28.96 29.7763 29.016 30.0003 29.128C30.2297 29.2347 30.411 29.4 30.5443 29.624C30.683 29.8427 30.7523 30.1253 30.7523 30.472C30.7523 30.696 30.7203 30.952 30.6563 31.24H28.2963V31.256C28.2963 31.6613 28.379 31.968 28.5443 32.176C28.715 32.384 28.987 32.488 29.3603 32.488C29.531 32.488 29.7177 32.4667 29.9203 32.424C30.1283 32.3813 30.331 32.3147 30.5283 32.224L30.7283 32.768ZM29.2563 29.536C28.947 29.536 28.7123 29.6373 28.5523 29.84C28.3977 30.0373 28.3123 30.3173 28.2963 30.68H30.0883C30.1043 30.584 30.1123 30.4933 30.1123 30.408C30.1123 30.1093 30.027 29.8907 29.8563 29.752C29.691 29.608 29.491 29.536 29.2563 29.536ZM34.4698 30.872V33H33.7738V27.56H35.4778C35.9898 27.56 36.3844 27.696 36.6618 27.968C36.9444 28.2347 37.0858 28.592 37.0858 29.04V29.384C37.0858 29.704 37.0111 29.9813 36.8618 30.216C36.7178 30.4507 36.5098 30.624 36.2378 30.736C36.4671 31.104 36.6804 31.4773 36.8778 31.856C37.0751 32.2347 37.2564 32.616 37.4218 33H36.6218C36.3178 32.2747 35.9631 31.5653 35.5578 30.872H34.4698ZM35.4778 28.2H34.4698V30.232H35.4778C35.7498 30.232 35.9658 30.1573 36.1258 30.008C36.2858 29.8533 36.3658 29.6453 36.3658 29.384V29.04C36.3658 28.7733 36.2858 28.568 36.1258 28.424C35.9658 28.2747 35.7498 28.2 35.4778 28.2ZM41.3065 32.768C41.0665 32.8853 40.8265 32.9653 40.5865 33.008C40.3465 33.056 40.1251 33.08 39.9225 33.08C39.3518 33.08 38.9251 32.9173 38.6425 32.592C38.3651 32.2667 38.2265 31.8213 38.2265 31.256V30.776C38.2265 30.2267 38.3651 29.7867 38.6425 29.456C38.9251 29.1253 39.3225 28.96 39.8345 28.96C40.1065 28.96 40.3545 29.016 40.5785 29.128C40.8078 29.2347 40.9891 29.4 41.1225 29.624C41.2611 29.8427 41.3305 30.1253 41.3305 30.472C41.3305 30.696 41.2985 30.952 41.2345 31.24H38.8745V31.256C38.8745 31.6613 38.9571 31.968 39.1225 32.176C39.2931 32.384 39.5651 32.488 39.9385 32.488C40.1091 32.488 40.2958 32.4667 40.4985 32.424C40.7065 32.3813 40.9091 32.3147 41.1065 32.224L41.3065 32.768ZM39.8345 29.536C39.5251 29.536 39.2905 29.6373 39.1305 29.84C38.9758 30.0373 38.8905 30.3173 38.8745 30.68H40.6665C40.6825 30.584 40.6905 30.4933 40.6905 30.408C40.6905 30.1093 40.6051 29.8907 40.4345 29.752C40.2691 29.608 40.0691 29.536 39.8345 29.536ZM42.9297 30.784V31.256C42.9297 31.6613 43.0044 31.968 43.1537 32.176C43.3031 32.3787 43.5404 32.48 43.8657 32.48C44.1857 32.48 44.5297 32.3973 44.8977 32.232L45.0977 32.784C44.6604 32.9813 44.2364 33.08 43.8257 33.08C43.3137 33.08 42.9244 32.9173 42.6577 32.592C42.3911 32.2667 42.2577 31.8213 42.2577 31.256V30.784C42.2577 30.2187 42.3911 29.7733 42.6577 29.448C42.9244 29.1227 43.3137 28.96 43.8257 28.96C44.0177 28.96 44.2151 28.9867 44.4177 29.04C44.6257 29.088 44.8337 29.1573 45.0417 29.248L44.8417 29.808C44.6657 29.7333 44.4951 29.6747 44.3297 29.632C44.1697 29.5893 44.0151 29.568 43.8657 29.568C43.5404 29.568 43.3031 29.672 43.1537 29.88C43.0044 30.0827 42.9297 30.384 42.9297 30.784ZM46.7555 28.072H46.0195V27.336H46.7555V28.072ZM46.7155 33H46.0595V29.04H46.7155V33ZM49.7138 33.08C49.4151 33.08 49.1058 33.0187 48.7858 32.896V34.704H48.1298V29.04H48.7538V29.6C48.9991 29.3653 49.2231 29.2 49.4258 29.104C49.6284 29.008 49.8364 28.96 50.0498 28.96C50.4711 28.96 50.7938 29.12 51.0178 29.44C51.2471 29.76 51.3618 30.2107 51.3618 30.792V31.256C51.3618 31.8107 51.2204 32.2533 50.9378 32.584C50.6604 32.9147 50.2524 33.08 49.7138 33.08ZM49.8898 29.576C49.7351 29.576 49.5751 29.616 49.4098 29.696C49.2444 29.776 49.0364 29.9387 48.7858 30.184V32.296C48.9404 32.3653 49.0898 32.416 49.2338 32.448C49.3778 32.4747 49.5191 32.488 49.6578 32.488C50.0204 32.488 50.2818 32.3787 50.4418 32.16C50.6018 31.936 50.6818 31.6347 50.6818 31.256V30.792C50.6818 30.376 50.6151 30.0693 50.4818 29.872C50.3538 29.6747 50.1564 29.576 49.8898 29.576ZM55.4471 32.768C55.2071 32.8853 54.9671 32.9653 54.7271 33.008C54.4871 33.056 54.2658 33.08 54.0631 33.08C53.4924 33.08 53.0658 32.9173 52.7831 32.592C52.5058 32.2667 52.3671 31.8213 52.3671 31.256V30.776C52.3671 30.2267 52.5058 29.7867 52.7831 29.456C53.0658 29.1253 53.4631 28.96 53.9751 28.96C54.2471 28.96 54.4951 29.016 54.7191 29.128C54.9484 29.2347 55.1298 29.4 55.2631 29.624C55.4018 29.8427 55.4711 30.1253 55.4711 30.472C55.4711 30.696 55.4391 30.952 55.3751 31.24H53.0151V31.256C53.0151 31.6613 53.0978 31.968 53.2631 32.176C53.4338 32.384 53.7058 32.488 54.0791 32.488C54.2498 32.488 54.4364 32.4667 54.6391 32.424C54.8471 32.3813 55.0498 32.3147 55.2471 32.224L55.4471 32.768ZM53.9751 29.536C53.6658 29.536 53.4311 29.6373 53.2711 29.84C53.1164 30.0373 53.0311 30.3173 53.0151 30.68H54.8071C54.8231 30.584 54.8311 30.4933 54.8311 30.408C54.8311 30.1093 54.7458 29.8907 54.5751 29.752C54.4098 29.608 54.2098 29.536 53.9751 29.536ZM57.5743 32.496C58.1077 32.496 58.3743 32.3147 58.3743 31.952C58.3743 31.7973 58.3263 31.6747 58.2303 31.584C58.1343 31.4933 57.9583 31.416 57.7023 31.352L57.2623 31.24C56.937 31.16 56.6943 31.0213 56.5343 30.824C56.3743 30.6213 56.2943 30.3813 56.2943 30.104C56.2943 29.9013 56.3397 29.7147 56.4303 29.544C56.521 29.368 56.665 29.2267 56.8623 29.12C57.0597 29.0133 57.3157 28.96 57.6303 28.96C57.833 28.96 58.0383 28.984 58.2463 29.032C58.4597 29.0747 58.6757 29.1493 58.8943 29.256L58.6863 29.808C58.297 29.632 57.945 29.544 57.6303 29.544C57.1663 29.544 56.9343 29.7173 56.9343 30.064C56.9343 30.1973 56.977 30.312 57.0623 30.408C57.1477 30.504 57.3077 30.5813 57.5423 30.64L57.9823 30.752C58.3343 30.8373 58.593 30.976 58.7583 31.168C58.9237 31.36 59.0063 31.608 59.0063 31.912C59.0063 32.1307 58.9583 32.3307 58.8623 32.512C58.7717 32.688 58.6223 32.8267 58.4143 32.928C58.2117 33.0293 57.937 33.08 57.5903 33.08C57.361 33.08 57.1317 33.056 56.9023 33.008C56.6783 32.96 56.4463 32.8827 56.2063 32.776L56.3823 32.232C56.6117 32.3227 56.8197 32.3893 57.0063 32.432C57.193 32.4747 57.3823 32.496 57.5743 32.496Z" fill="black"/>
</svg>
